<?xml version="1.0" encoding="utf-8"?>
<!-- Generator: Adobe Illustrator 24.1.1, SVG Export Plug-In . SVG Version: 6.00 Build 0)  -->
<svg version="1.1" id="Layer_1" xmlns="http://www.w3.org/2000/svg" xmlns:xlink="http://www.w3.org/1999/xlink" x="0px" y="0px"
	 viewBox="0 0 512 512" style="enable-background:new 0 0 512 512;" xml:space="preserve">
<style type="text/css">
	.st0{fill:#333333;}
</style>
<g id="XMLID_1_">
	<circle id="XMLID_3_" class="st0" cx="329.3" cy="122.1" r="24.4"/>
	<circle id="XMLID_4_" class="st0" cx="378.1" cy="73.3" r="24.4"/>
	<circle id="XMLID_5_" class="st0" cx="451.3" cy="24.4" r="24.4"/>
	<circle id="XMLID_6_" class="st0" cx="451.3" cy="122.1" r="24.4"/>
	<circle id="XMLID_7_" class="st0" cx="451.3" cy="219.8" r="24.4"/>
	<circle id="XMLID_8_" class="st0" cx="378.1" cy="170.9" r="24.4"/>
	<path id="XMLID_9_" class="st0" d="M280.4,97.7c0-13.4-11-24.4-24.4-24.4H133.9c-7.9,0-15.8,3.9-20.5,11l-48.8,73.3
		c-4.7,7.9-5.5,17.3-1.6,25.2c3.9,7.9,12.6,12.6,21.3,12.6l0,0h146.5l0,0v24.4l0,0c0,6.3,2.4,12.6,7.1,17.3l73.3,73.3l34.7-34.7
		l-66.2-66.2L280.4,97.7L280.4,97.7z"/>
	<path id="XMLID_10_" class="st0" d="M207.2,233.9v-14.2h-97.7v14.2l-66.2,65.4c-4.7,4.7-7.1,11-7.1,17.3v170.9
		c0,13.4,11,24.4,24.4,24.4H256c13.4,0,24.4-11,24.4-24.4V316.7c0-6.3-2.4-12.6-7.1-17.3L207.2,233.9z"/>
</g>
</svg>
